# xmcd
#
# Track frame offsets: 
#        150
#        12476
#        28003
#        47634
#        56168
#        71257
#        86657
#        100128
#        113249
#        122046
#        137234
#
# Disc length: 2131 seconds
#
# Revision: 1
# Processed by: cddbd v1.5.2PL0 Copyright (c) Steve Scherf et al.
# Submitted via: ExactAudioCopyFreeDBPlugin 1.0
#
DISCID=9608510b
DTITLE=Andres Roots Roundabout - THREE!
DYEAR=2013
DGENRE=Blues
TTITLE0=Greengrass Stomp
TTITLE1=Room Service
TTITLE2=Link To Elmore
TTITLE3=High Noon
TTITLE4=Orient Express
TTITLE5=Moby Duck
TTITLE6=Saucer Full Of Cream
TTITLE7=Three Sticks
TTITLE8=Wagon Swing
TTITLE9=Miss Carmen James
TTITLE10=Onion Boy
EXTD=
EXTT0=
EXTT1=
EXTT2=
EXTT3=
EXTT4=
EXTT5=
EXTT6=
EXTT7=
EXTT8=
EXTT9=
EXTT10=
PLAYORDER=
